<?xml version="1.0" encoding="UTF-8"?>
<svg version="1.1" xmlns="http://www.w3.org/2000/svg" width="408" height="401">
<path d="M0 0 C134.64 0 269.28 0 408 0 C408 132.33 408 264.66 408 401 C273.36 401 138.72 401 0 401 C0 268.67 0 136.34 0 0 Z " fill="#FDFDFD" transform="translate(0,0)"/>
<path d="M0 0 C1.22738122 0.52806823 2.45745645 1.04996845 3.69140625 1.5625 C22.08618137 9.55456286 37.99310522 20.83457185 53 34 C54.29051446 35.06389917 55.58195049 36.12668333 56.875 37.1875 C60.65353001 40.44867627 63.79755382 44.18418208 67 48 C67.763125 48.87527344 68.52625 49.75054687 69.3125 50.65234375 C75.48258454 57.83470779 80.84418496 65.35487453 85.93505859 73.33544922 C86.82346451 74.72406718 87.73161436 76.10002824 88.64453125 77.47265625 C100.12899314 95.41119589 109.31399957 118.71067256 111 140 C111.19142578 141.48693359 111.19142578 141.48693359 111.38671875 143.00390625 C112.91710663 163.0494786 96.7821201 184.95040777 85 200 C66.25548781 219.95098786 37.69199141 231.67409089 12.37890625 240.7734375 C9.60825817 241.77919877 6.90176603 242.85470078 4.1875 244 C-11.67158374 250.3541362 -28.34736817 254.36073877 -45 258 C-46.20462891 258.27336182 -46.20462891 258.27336182 -47.43359375 258.55224609 C-67.90815121 263.07266135 -93.74088339 263.8225198 -114 258 C-114.89412598 257.74718262 -115.78825195 257.49436523 -116.70947266 257.23388672 C-145.38112639 248.89432916 -178.89104485 232.18422442 -194.18994141 204.87597656 C-201.17293803 191.34006384 -204.6452736 178.37814191 -201.10546875 163.15234375 C-200.15545976 160.38959675 -199.09963324 157.7049014 -198 155 C-198 154.34 -198 153.68 -198 153 C-205.22813797 157.78287427 -211.76652002 162.97596494 -218 169 C-218.77472656 169.73734375 -219.54945313 170.4746875 -220.34765625 171.234375 C-229.45747207 180.54732565 -236.16836602 193.27887305 -237.2890625 206.37890625 C-236.91098481 211.11509567 -235.73223284 215.39691657 -234.375 219.9375 C-234.10139648 220.86409424 -233.82779297 221.79068848 -233.54589844 222.74536133 C-225.47848712 249.61280494 -212.50001667 271.83141133 -193 292 C-192.38640625 292.66515625 -191.7728125 293.3303125 -191.140625 294.015625 C-172.68295082 313.56979468 -144.99011166 327.86570921 -119.125 334.125 C-118.12597656 334.37636719 -117.12695312 334.62773437 -116.09765625 334.88671875 C-103.9428182 337.88229819 -92.47595938 339.36674215 -79.9375 339.3125 C-79.25746918 339.31034485 -78.57743835 339.3081897 -77.87680054 339.30596924 C-33.99024606 339.08351143 6.86432596 320.65532003 38 290 C38.88816406 289.13632812 39.77632813 288.27265625 40.69140625 287.3828125 C57.55334936 270.05452744 69.72231114 248.0473829 76.25 224.875 C79.40748194 213.85820738 85.2062939 206.1708913 92.24853516 197.296875 C100.45532578 186.53447101 106.64923052 174.38164404 112 162 C112.33 162 112.66 162 113 162 C113.47382703 186.69003287 112.85847718 210.32588304 105 234 C104.74202637 234.77827148 104.48405273 235.55654297 104.21826172 236.35839844 C100.37857577 247.7235012 95.69489356 258.44850561 90 269 C89.67386719 269.61214355 89.34773438 270.22428711 89.01171875 270.85498047 C82.12443799 283.70003348 73.33637795 294.8582451 64 306 C63.39285156 306.7321875 62.78570312 307.464375 62.16015625 308.21875 C58.1325806 312.9678188 53.76967971 317.00887625 49 321 C48.12601562 321.76183594 47.25203125 322.52367187 46.3515625 323.30859375 C22.31865751 343.95885125 -7.77533497 359.22601752 -39 365 C-40.34771484 365.26852783 -40.34771484 365.26852783 -41.72265625 365.54248047 C-58.22708238 368.79776425 -74.20265551 369.72326701 -91 369 C-91.90057129 368.96132813 -92.80114258 368.92265625 -93.72900391 368.8828125 C-120.90060283 367.46234836 -147.1664582 358.81609071 -171 346 C-171.59087402 345.68981934 -172.18174805 345.37963867 -172.79052734 345.06005859 C-187.89487546 337.10176317 -201.44466713 326.57030988 -213.4921875 314.50390625 C-215.02752928 312.97095597 -216.58651135 311.46070334 -218.18359375 309.9921875 C-238.31798922 291.07911585 -251.14201251 265.81563828 -260 240 C-260.39674927 238.88117432 -260.39674927 238.88117432 -260.80151367 237.73974609 C-262.68646206 232.31303835 -264.05033358 226.87831007 -265.1875 221.25 C-265.36474609 220.445625 -265.54199219 219.64125 -265.72460938 218.8125 C-268.15944301 206.85455257 -267.54711393 197.14065856 -262.5 186 C-262.04294678 184.95473145 -261.58589355 183.90946289 -261.11499023 182.83251953 C-257.66276924 175.09737745 -253.9310419 167.90897849 -249 161 C-248.62359375 160.44199707 -248.2471875 159.88399414 -247.859375 159.30908203 C-224.38054206 124.69114369 -172.89515302 110.43336957 -134.5 100.6875 C-133.14152954 100.34187012 -133.14152954 100.34187012 -131.75561523 99.98925781 C-116.83779215 96.34769942 -102.6526021 94.44049997 -87.3125 94.5625 C-86.48438812 94.56587372 -85.65627625 94.56924744 -84.80307007 94.57272339 C-57.73511477 94.73196006 -34.77407408 101.15988204 -11 114 C-10.08992188 114.49113281 -9.17984375 114.98226562 -8.2421875 115.48828125 C11.58037392 126.80180103 31.38686363 145.05562048 38.73828125 167.2265625 C41.93418596 179.53188268 39.8763791 191.85627829 34 203 C44.40561164 196.91245309 53.50631106 190.56997956 62 182 C62.73734375 181.29617187 63.4746875 180.59234375 64.234375 179.8671875 C73.04331562 170.88753098 80.32812638 156.44098275 81.2265625 143.81640625 C80.9459941 139.09028 79.78970276 134.99829578 78.375 130.5 C78.10212158 129.61924805 77.82924316 128.73849609 77.5480957 127.83105469 C64.57255971 86.70640508 37.36827999 53.03571059 -1 33 C-38.15531273 13.9057236 -78.36010406 8.80142429 -119 19 C-120.34366735 19.3141558 -121.68740652 19.62800474 -123.03125 19.94140625 C-161.58400998 29.80065565 -196.09764858 57.4433726 -216.46118164 91.14770508 C-223.04662538 102.39561115 -228.55561985 113.7815338 -232.15649414 126.32250977 C-234.85327571 135.66823698 -238.15841353 141.87821204 -245 149 C-255.37925937 160.81088136 -262.2153606 174.48168936 -268 189 C-268.33 189 -268.66 189 -269 189 C-270.31772473 133.9191062 -254.96465643 82.94747091 -216.4375 42.53125 C-215.633125 41.6959375 -214.82875 40.860625 -214 40 C-213.4225 39.3709375 -212.845 38.741875 -212.25 38.09375 C-206.98128416 32.50891121 -200.79304562 27.94402102 -194.703125 23.30175781 C-193.22031241 22.16839246 -191.74967078 21.01913828 -190.28125 19.8671875 C-168.71717084 3.42790493 -141.47261217 -8.2770752 -114.70703125 -12.4140625 C-111.79385186 -12.87452289 -108.9852883 -13.42389914 -106.125 -14.125 C-72.27236354 -21.9620274 -30.98794779 -14.64701679 0 0 Z " fill="#030303" transform="translate(282,24)"/>
<path d="M0 0 C1.23169922 1.00160156 1.23169922 1.00160156 2.48828125 2.0234375 C3.36097656 2.73242188 4.23367188 3.44140625 5.1328125 4.171875 C14.34379375 12.04332824 22.25299057 21.78206475 23.90234375 34.12109375 C24.52207603 47.80413011 18.19863107 57.93323028 9.48828125 68.0234375 C-1.48064737 79.65967736 -15.77839918 87.2936015 -30.51171875 93.0234375 C-31.16301758 93.2805249 -31.81431641 93.5376123 -32.48535156 93.80249023 C-59.6675944 104.30832789 -89.02713555 101.97566538 -115.65722656 90.83935547 C-128.7734962 85.01690077 -140.67994081 77.45634708 -151.51171875 68.0234375 C-152.21941406 67.41113281 -152.92710937 66.79882812 -153.65625 66.16796875 C-161.45505859 58.935804 -167.79586611 49.0915404 -168.8828125 38.359375 C-169.13079688 23.56783616 -164.75117186 13.90388366 -154.51171875 3.0234375 C-111.61530088 -40.97666179 -46.62903854 -35.80317678 0 0 Z " fill="#FCFCFC" transform="translate(273.51171875,165.9765625)"/>
<path d="M0 0 C2.475 0.495 2.475 0.495 5 1 C5 2.98 5 4.96 5 7 C5.66 7 6.32 7 7 7 C7.09796875 7.96679688 7.1959375 8.93359375 7.296875 9.9296875 C8.35479709 22.90802735 8.35479709 22.90802735 14.81640625 33.6484375 C16.50283907 34.82723701 18.24764727 35.92162909 20 37 C20 37.66 20 38.32 20 39 C21.03125 39.12375 22.0625 39.2475 23.125 39.375 C24.75010378 39.58252225 26.37508367 39.7910151 28 40 C29.18078125 40.14566406 30.3615625 40.29132813 31.578125 40.44140625 C32.83109375 40.60511719 34.0840625 40.76882812 35.375 40.9375 C37.18097656 41.16759766 37.18097656 41.16759766 39.0234375 41.40234375 C42 42 42 42 44 44 C43.625 47.625 43.625 47.625 43 51 C41.69804687 51.18175781 40.39609375 51.36351562 39.0546875 51.55078125 C37.32804563 51.80414718 35.6014874 52.0580836 33.875 52.3125 C32.59109375 52.48942383 32.59109375 52.48942383 31.28125 52.66992188 C24.77191868 53.64632157 19.65766018 55.10945681 15 60 C14.34 60 13.68 60 13 60 C12.71125 60.721875 12.4225 61.44375 12.125 62.1875 C11 65 11 65 10 67.03125 C8.5340657 71.38324246 8.26801966 75.75411628 7.875 80.3125 C7.78863281 81.24384766 7.70226562 82.17519531 7.61328125 83.13476562 C7.40209195 85.42264973 7.19788734 87.71093346 7 90 C6.34 90 5.68 90 5 90 C4.505 91.485 4.505 91.485 4 93 C2.35 92.67 0.7 92.34 -1 92 C-2.20568053 87.32798795 -2.09382426 82.78503708 -2 78 C-2.66 78 -3.32 78 -4 78 C-4.18175781 77.11957031 -4.36351562 76.23914063 -4.55078125 75.33203125 C-4.92783203 73.58986328 -4.92783203 73.58986328 -5.3125 71.8125 C-5.55613281 70.66394531 -5.79976562 69.51539063 -6.05078125 68.33203125 C-7.64848128 62.72364388 -9.9064675 59.39309735 -14.82861328 56.08447266 C-19.10911158 53.9466299 -23.74644033 53.39253239 -28.4375 52.6875 C-29.45521484 52.51927734 -30.47292969 52.35105469 -31.52148438 52.17773438 C-34.01213445 51.76847263 -36.50421377 51.37642727 -39 51 C-39.6875 48.1875 -39.6875 48.1875 -40 45 C-38.42463949 42.80143434 -37.35014116 42.09508192 -34.73168945 41.3840332 C-33.86761475 41.27406006 -33.00354004 41.16408691 -32.11328125 41.05078125 C-31.17548828 40.92509766 -30.23769531 40.79941406 -29.27148438 40.66992188 C-27.80678711 40.49299805 -27.80678711 40.49299805 -26.3125 40.3125 C-25.32443359 40.18294922 -24.33636719 40.05339844 -23.31835938 39.91992188 C-20.88013563 39.60189269 -18.44101119 39.29573607 -16 39 C-16 38.34 -16 37.68 -16 37 C-15.071875 36.608125 -14.14375 36.21625 -13.1875 35.8125 C-8.65130257 33.23309362 -7.57545153 30.63044599 -5.875 25.8125 C-4.82133417 21.22152746 -4.35857131 16.68973531 -4 12 C-3.34 12 -2.68 12 -2 12 C-2.02320313 11.38511719 -2.04640625 10.77023438 -2.0703125 10.13671875 C-2.08835938 9.32847656 -2.10640625 8.52023438 -2.125 7.6875 C-2.14820313 6.88699219 -2.17140625 6.08648437 -2.1953125 5.26171875 C-2 3 -2 3 0 0 Z " fill="#070707" transform="translate(207,154)"/>
<path d="M0 0 C0.66 0 1.32 0 2 0 C2.268125 0.763125 2.53625 1.52625 2.8125 2.3125 C4.00439913 5.00995593 4.88254149 6.03939027 7 8 C7.78375 8.99 8.5675 9.98 9.375 11 C11.81858403 13.79266746 13.83206565 15.1897518 17 17 C17 17.66 17 18.32 17 19 C15.824375 19.12375 15.824375 19.12375 14.625 19.25 C11.90805183 19.70480489 11.90805183 19.70480489 10.9375 21.75 C10.628125 22.4925 10.31875 23.235 10 24 C6.44444444 28.77777778 6.44444444 28.77777778 4 30 C3.27840576 31.64363134 2.60648579 33.31050386 2 35 C1.34 35 0.68 35 0 35 C-0.350625 33.96875 -0.70125 32.9375 -1.0625 31.875 C-2.7139413 27.9418572 -5.14162046 25.82976484 -8.4765625 23.26171875 C-10 22 -10 22 -11 20 C-13.01669827 18.86649466 -13.01669827 18.86649466 -15 18 C-13 15 -13 15 -10.5625 13.5625 C-7.93002703 11.95733355 -6.7790354 10.45676317 -5 8 C-4.34 8 -3.68 8 -3 8 C-1.92474806 5.34771188 -0.90543849 2.71631546 0 0 Z " fill="#F5F5F6" transform="translate(208,183)"/>
<path d="M0 0 C0.99 0.33 1.98 0.66 3 1 C3.268125 2.134375 3.53625 3.26875 3.8125 4.4375 C4.204375 5.613125 4.59625 6.78875 5 8 C8.00594421 9.53146378 8.00594421 9.53146378 11 10 C11 11.65 11 13.3 11 15 C10.071875 15.350625 9.14375 15.70125 8.1875 16.0625 C4.0142355 18.59919019 3.53814504 20.4710174 2 25 C0.68 25 -0.64 25 -2 25 C-2.268125 24.071875 -2.53625 23.14375 -2.8125 22.1875 C-3.92733616 19.19504504 -4.47682015 17.8438622 -7 16 C-9.10332891 15.28552357 -9.10332891 15.28552357 -11 15 C-10.67 13.35 -10.34 11.7 -10 10 C-8.02 9.67 -6.04 9.34 -4 9 C-3.81824219 8.15115234 -3.81824219 8.15115234 -3.6328125 7.28515625 C-3.38144531 6.18494141 -3.38144531 6.18494141 -3.125 5.0625 C-2.96257812 4.33160156 -2.80015625 3.60070312 -2.6328125 2.84765625 C-2 1 -2 1 0 0 Z " fill="#090909" transform="translate(181,157)"/>
<path d="M0 0 C0.66 0.33 1.32 0.66 2 1 C1.04882866 2.1725131 0.08882991 3.33787015 -0.875 4.5 C-1.40867188 5.1496875 -1.94234375 5.799375 -2.4921875 6.46875 C-2.98976562 6.9740625 -3.48734375 7.479375 -4 8 C-4.66 8 -5.32 8 -6 8 C-6.33 9.32 -6.66 10.64 -7 12 C-7.66 12 -8.32 12 -9 12 C-7.60090738 7.54834166 -5.39864635 5.14374788 -2 2 C-1.34 1.34 -0.68 0.68 0 0 Z " fill="#E3E3E5" transform="translate(226,209)"/>
<path d="M0 0 C0.66 0.33 1.32 0.66 2 1 C1.319375 1.804375 1.319375 1.804375 0.625 2.625 C-1.21688312 5.31698302 -2.07971933 7.88520388 -3 11 C-3.99 11 -4.98 11 -6 11 C-6 10.34 -6 9.68 -6 9 C-5.34 9 -4.68 9 -4 9 C-3.896875 8.071875 -3.79375 7.14375 -3.6875 6.1875 C-2.9929808 2.96745642 -2.52259061 1.97420135 0 0 Z " fill="#D2D2D4" transform="translate(187,173)"/>
<path d="M0 0 C0.99 0.33 1.98 0.66 3 1 C3 4.63 3 8.26 3 12 C2.67 12 2.34 12 2 12 C2 9.69 2 7.38 2 5 C1.34 5 0.68 5 0 5 C0 3.35 0 1.7 0 0 Z " fill="#A6A6A7" transform="translate(212,156)"/>
</svg>
